#!OML:ASF H:\ManfredETheater\Project 1\Capture day 1\Session 1\subject.ASF
:FULLY-SPECIFIED
:DEGREES
65
root 2.68051 16.5008 1.26612 -158.643 -4.1136 -174.273
lowerback 12.5909 1.85069 6.94848
upperback -1.6371 3.58884 2.20301
thorax -8.56348 1.38685 -2.24297
lowerneck -23.7105 -4.74622 -3.85983
upperneck 2.99885 -5.91181 1.5214
head 4.72818 -3.09678 0.446024
rclavicle -5.70512e-014 -5.96354e-014
rhumerus -22.9272 17.8472 -80.5697
rradius 137.287
rwrist -12.0557
rhand -22.8936 18.7332
rfingers 7.12502
rthumb 3.54584 -11.217
lclavicle -5.70512e-014 -5.96354e-014
lhumerus -86.1087 -8.9631 89.7618
lradius 102.786
lwrist 16.1005
lhand -21.1921 -12.3544
lfingers 7.12502
lthumb 5.18887 17.5621
rfemur 13.5388 1.85403 30.0791
rtibia 13.7915
rfoot 27.0653 -1.06874
rtoes -26.7871
lfemur -76.2981 0.171012 -14.5093
ltibia 72.8356
lfoot -16.3236 -9.09158
ltoes -5.46694
66
root 2.68616 16.5487 0.571823 -158.852 -4.74169 -174.252
lowerback 12.3051 1.83908 7.09494
upperback -1.59125 3.56402 2.15729
thorax -8.3398 1.37766 -2.35538
lowerneck -23.8717 -4.95064 -3.91363
upperneck 3.50665 -6.14199 1.75428
head 4.92904 -3.17359 0.492693
rclavicle -5.76476e-015 -1.59028e-014
rhumerus -22.8248 17.8229 -79.654
rradius 137.951
rwrist -12.5026
rhand -22.744 18.7119
rfingers 7.12502
rthumb 3.69031 -11.2359
lclavicle -5.76476e-015 -1.59028e-014
lhumerus -86.7389 -8.39066 89.2029
lradius 103.189
lwrist 16.1076
lhand -21.0361 -12.6026
lfingers 7.12502
lthumb 5.33951 17.3102
rfemur 16.9525 3.11577 30.7138
rtibia 10.0689
rfoot 31.8519 -1.95721
rtoes -22.493
lfemur -76.0227 -0.247493 -14.7482
ltibia 68.6342
lfoot -16.8065 -9.41582
ltoes -6.75106
67
root 2.69536 16.5933 -0.113125 -159.041 -5.39083 -174.234
lowerback 12.1313 1.79598 7.21689
upperback -1.54843 3.50413 2.11497
thorax -8.18918 1.35 -2.44931
lowerneck -24.0429 -5.12818 -3.94787
upperneck 3.94722 -6.35132 1.97643
head 5.10957 -3.24313 0.535389
rclavicle 1.07344e-014 -4.53229e-014
rhumerus -22.8604 17.7513 -78.997
rradius 138.024
rwrist -12.8133
rhand -22.5965 18.5162
rfingers 7.12502
rthumb 3.83277 -11.429
lclavicle 1.07344e-014 -4.53229e-014
lhumerus -87.0498 -7.77721 88.655
lradius 103.543
lwrist 15.8733
lhand -20.9093 -12.8247
lfingers 7.12502
lthumb 5.4619 17.0849
rfemur 19.0667 3.93592 31.3892
rtibia 8.89744
rfoot 34.2525 -2.31762
rtoes -18.8002
lfemur -75.6009 -0.549389 -15.1333
ltibia 64.5845
lfoot -17.0798 -9.46232
ltoes -7.9303
68
root 2.70834 16.6329 -0.787662 -159.209 -6.04552 -174.202
lowerback 12.0659 1.72714 7.32158
upperback -1.50673 3.41774 2.07787
thorax -8.10623 1.3076 -2.52832
lowerneck -24.1737 -5.27387 -3.96949
upperneck 4.25426 -6.53627 2.20861
head 5.24169 -3.30388 0.584436
rclavicle 2.32578e-014 3.57812e-014
rhumerus -23.0915 17.6457 -78.6599
rradius 137.535
rwrist -12.8884
rhand -22.4365 18.1654
rfingers 7.12502
rthumb 3.9873 -11.777
lclavicle 2.32578e-014 3.57812e-014
lhumerus -87.0468 -7.12364 88.1608
lradius 103.86
lwrist 15.3989
lhand -20.8539 -13.0065
lfingers 7.12502
lthumb 5.51539 16.9018
rfemur 19.3569 4.71476 32.2099
rtibia 11.3334
rfoot 34.0764 -2.96214
rtoes -16.0117
lfemur -75.0721 -0.705146 -15.6763
ltibia 60.8235
lfoot -17.1396 -9.26731
ltoes -8.93924
69
root 2.7252 16.6642 -1.4517 -159.371 -6.69624 -174.151
lowerback 12.0983 1.63601 7.40397
upperback -1.45636 3.30736 2.05411
thorax -8.07484 1.25258 -2.58056
lowerneck -24.2666 -5.38783 -3.97293
upperneck 4.41753 -6.6963 2.43583
head 5.32122 -3.35735 0.634554
rclavicle -2.64384e-014 -3.97569e-015
rhumerus -23.5527 17.5112 -78.6604
rradius 136.53
rwrist -12.7005
rhand -22.263 17.6751
rfingers 7.12502
rthumb 4.15482 -12.2641
lclavicle -2.64384e-014 -3.97569e-015
lhumerus -86.7266 -6.42655 87.7712
lradius 104.126
lwrist 14.7417
lhand -20.8934 -13.0667
lfingers 7.12502
lthumb 5.47728 16.8425
rfemur 18.524 4.84359 32.9071
rtibia 15.8962
rfoot 32.7559 -4.00293
rtoes -13.7088
lfemur -74.4727 -0.710182 -16.372
ltibia 57.5028
lfoot -16.9745 -8.92701
ltoes -9.6427
70
root 2.74543 16.6864 -2.10712 -159.54 -7.31714 -174.083
lowerback 12.2122 1.53449 7.44643
upperback -1.38905 3.18428 2.04922
thorax -8.07633 1.19206 -2.59106
lowerneck -24.2987 -5.47122 -3.96712
upperneck 4.41694 -6.82982 2.65694
head 5.33818 -3.40394 0.68788
rclavicle -2.56432e-014 -2.54444e-014
rhumerus -24.2707 17.3221 -78.977
rradius 135.077
rwrist -12.2875
rhand -22.0701 17.1246
rfingers 7.12502
rthumb 4.34107 -12.8109
lclavicle -2.56432e-014 -2.54444e-014
lhumerus -86.092 -5.69689 87.5401
lradius 104.322
lwrist 14.014
lhand -21.0152 -12.9843
lfingers 7.12502
lthumb 5.35968 16.9279
rfemur 17.193 4.59085 33.5025
rtibia 21.3072
rfoot 31.3916 -5.72734
rtoes -12.0267
lfemur -73.8199 -0.569957 -17.1932
ltibia 54.7548
lfoot -16.6336 -8.54293
ltoes -10.0503
